<svg width="45" height="15" viewBox="0 0 45 15" fill="none" xmlns="http://www.w3.org/2000/svg">
<path d="M3.05469 5.60156H4.08594C4.59115 5.60156 5.00781 5.51823 5.33594 5.35156C5.66927 5.17969 5.91667 4.94792 6.07812 4.65625C6.24479 4.35938 6.32812 4.02604 6.32812 3.65625C6.32812 3.21875 6.25521 2.85156 6.10938 2.55469C5.96354 2.25781 5.74479 2.03385 5.45312 1.88281C5.16146 1.73177 4.79167 1.65625 4.34375 1.65625C3.9375 1.65625 3.57812 1.73698 3.26562 1.89844C2.95833 2.05469 2.71615 2.27865 2.53906 2.57031C2.36719 2.86198 2.28125 3.20573 2.28125 3.60156H0.835938C0.835938 3.02344 0.981771 2.4974 1.27344 2.02344C1.5651 1.54948 1.97396 1.17188 2.5 0.890625C3.03125 0.609375 3.64583 0.46875 4.34375 0.46875C5.03125 0.46875 5.63281 0.591146 6.14844 0.835938C6.66406 1.07552 7.0651 1.4349 7.35156 1.91406C7.63802 2.38802 7.78125 2.97917 7.78125 3.6875C7.78125 3.97396 7.71354 4.28125 7.57812 4.60938C7.44792 4.93229 7.24219 5.23438 6.96094 5.51562C6.6849 5.79688 6.32552 6.02865 5.88281 6.21094C5.4401 6.38802 4.90885 6.47656 4.28906 6.47656H3.05469V5.60156ZM3.05469 6.78906V5.92188H4.28906C5.01302 5.92188 5.61198 6.00781 6.08594 6.17969C6.5599 6.35156 6.93229 6.58073 7.20312 6.86719C7.47917 7.15365 7.67188 7.46875 7.78125 7.8125C7.89583 8.15104 7.95312 8.48958 7.95312 8.82812C7.95312 9.35938 7.86198 9.83073 7.67969 10.2422C7.5026 10.6536 7.25 11.0026 6.92188 11.2891C6.59896 11.5755 6.21875 11.7917 5.78125 11.9375C5.34375 12.0833 4.86719 12.1562 4.35156 12.1562C3.85677 12.1562 3.39062 12.0859 2.95312 11.9453C2.52083 11.8047 2.13802 11.6016 1.80469 11.3359C1.47135 11.0651 1.21094 10.7344 1.02344 10.3438C0.835938 9.94792 0.742188 9.4974 0.742188 8.99219H2.1875C2.1875 9.38802 2.27344 9.73438 2.44531 10.0312C2.6224 10.3281 2.8724 10.5599 3.19531 10.7266C3.52344 10.888 3.90885 10.9688 4.35156 10.9688C4.79427 10.9688 5.17448 10.8932 5.49219 10.7422C5.8151 10.5859 6.0625 10.3516 6.23438 10.0391C6.41146 9.72656 6.5 9.33333 6.5 8.85938C6.5 8.38542 6.40104 7.9974 6.20312 7.69531C6.00521 7.38802 5.72396 7.16146 5.35938 7.01562C5 6.86458 4.57552 6.78906 4.08594 6.78906H3.05469ZM11.4141 10.2812V11.4453C11.4141 11.9193 11.2943 12.4193 11.0547 12.9453C10.8151 13.4766 10.4792 13.9193 10.0469 14.2734L9.22656 13.7031C9.39323 13.474 9.53385 13.2396 9.64844 13C9.76302 12.7656 9.84896 12.5208 9.90625 12.2656C9.96875 12.0156 10 11.75 10 11.4688V10.2812H11.4141ZM14.9297 6.58594L13.7734 6.28906L14.3438 0.625H20.1797V1.96094H15.5703L15.2266 5.05469C15.4349 4.9349 15.6979 4.82292 16.0156 4.71875C16.3385 4.61458 16.7083 4.5625 17.125 4.5625C17.651 4.5625 18.1224 4.65365 18.5391 4.83594C18.9557 5.01302 19.3099 5.26823 19.6016 5.60156C19.8984 5.9349 20.125 6.33594 20.2812 6.80469C20.4375 7.27344 20.5156 7.79688 20.5156 8.375C20.5156 8.92188 20.4401 9.42448 20.2891 9.88281C20.1432 10.3411 19.9219 10.7422 19.625 11.0859C19.3281 11.4245 18.9531 11.6875 18.5 11.875C18.0521 12.0625 17.5234 12.1562 16.9141 12.1562C16.4557 12.1562 16.0208 12.0938 15.6094 11.9688C15.2031 11.8385 14.8385 11.6432 14.5156 11.3828C14.1979 11.1172 13.9375 10.7891 13.7344 10.3984C13.5365 10.0026 13.4115 9.53906 13.3594 9.00781H14.7344C14.7969 9.4349 14.9219 9.79427 15.1094 10.0859C15.2969 10.3776 15.5417 10.599 15.8438 10.75C16.151 10.8958 16.5078 10.9688 16.9141 10.9688C17.2578 10.9688 17.5625 10.9089 17.8281 10.7891C18.0938 10.6693 18.3177 10.4974 18.5 10.2734C18.6823 10.0495 18.8203 9.77865 18.9141 9.46094C19.013 9.14323 19.0625 8.78646 19.0625 8.39062C19.0625 8.03125 19.013 7.69792 18.9141 7.39062C18.8151 7.08333 18.6667 6.8151 18.4688 6.58594C18.276 6.35677 18.0391 6.17969 17.7578 6.05469C17.4766 5.92448 17.1536 5.85938 16.7891 5.85938C16.3047 5.85938 15.9375 5.92448 15.6875 6.05469C15.4427 6.1849 15.1901 6.36198 14.9297 6.58594ZM27.9531 0.625V12H26.4453V0.625H27.9531ZM34.8203 0.625L30.0938 5.92969L27.4375 8.6875L27.1875 7.07812L29.1875 4.875L33.0078 0.625H34.8203ZM33.3672 12L29.1562 6.45312L30.0547 5.25781L35.1641 12H33.3672ZM44.6484 6.33594V10.5C44.5078 10.7083 44.2839 10.9427 43.9766 11.2031C43.6693 11.4583 43.2448 11.6823 42.7031 11.875C42.1667 12.0625 41.474 12.1562 40.625 12.1562C39.9323 12.1562 39.2943 12.0365 38.7109 11.7969C38.1328 11.5521 37.6302 11.1979 37.2031 10.7344C36.7812 10.2656 36.4531 9.69792 36.2188 9.03125C35.9896 8.35938 35.875 7.59896 35.875 6.75V5.86719C35.875 5.01823 35.974 4.26042 36.1719 3.59375C36.375 2.92708 36.6719 2.36198 37.0625 1.89844C37.4531 1.42969 37.9323 1.07552 38.5 0.835938C39.0677 0.591146 39.7188 0.46875 40.4531 0.46875C41.3229 0.46875 42.0495 0.619792 42.6328 0.921875C43.2214 1.21875 43.6797 1.63021 44.0078 2.15625C44.3411 2.68229 44.5547 3.28125 44.6484 3.95312H43.1406C43.0729 3.54167 42.9375 3.16667 42.7344 2.82812C42.5365 2.48958 42.2526 2.21875 41.8828 2.01562C41.513 1.80729 41.0365 1.70312 40.4531 1.70312C39.9271 1.70312 39.4714 1.79948 39.0859 1.99219C38.7005 2.1849 38.3828 2.46094 38.1328 2.82031C37.8828 3.17969 37.6953 3.61458 37.5703 4.125C37.4505 4.63542 37.3906 5.21094 37.3906 5.85156V6.75C37.3906 7.40625 37.4661 7.99219 37.6172 8.50781C37.7734 9.02344 37.9948 9.46354 38.2812 9.82812C38.5677 10.1875 38.9089 10.4609 39.3047 10.6484C39.7057 10.8359 40.1484 10.9297 40.6328 10.9297C41.1693 10.9297 41.6042 10.8854 41.9375 10.7969C42.2708 10.7031 42.5312 10.5938 42.7188 10.4688C42.9062 10.3385 43.0495 10.2161 43.1484 10.1016V7.55469H40.5156V6.33594H44.6484Z" fill="black"/>
</svg>
