<svg width="60" height="10" viewBox="0 0 60 10" fill="none" xmlns="http://www.w3.org/2000/svg">
<path d="M6.06445 4.05469V5.35547C6.06445 6.05469 6.00195 6.64453 5.87695 7.125C5.75195 7.60547 5.57227 7.99219 5.33789 8.28516C5.10352 8.57812 4.82031 8.79102 4.48828 8.92383C4.16016 9.05273 3.78906 9.11719 3.375 9.11719C3.04688 9.11719 2.74414 9.07617 2.4668 8.99414C2.18945 8.91211 1.93945 8.78125 1.7168 8.60156C1.49805 8.41797 1.31055 8.17969 1.1543 7.88672C0.998047 7.59375 0.878906 7.23828 0.796875 6.82031C0.714844 6.40234 0.673828 5.91406 0.673828 5.35547V4.05469C0.673828 3.35547 0.736328 2.76953 0.861328 2.29688C0.990234 1.82422 1.17188 1.44531 1.40625 1.16016C1.64062 0.871094 1.92188 0.664062 2.25 0.539062C2.58203 0.414063 2.95312 0.351562 3.36328 0.351562C3.69531 0.351562 4 0.392578 4.27734 0.474609C4.55859 0.552734 4.80859 0.679688 5.02734 0.855469C5.24609 1.02734 5.43164 1.25781 5.58398 1.54688C5.74023 1.83203 5.85938 2.18164 5.94141 2.5957C6.02344 3.00977 6.06445 3.49609 6.06445 4.05469ZM4.97461 5.53125V3.87305C4.97461 3.49023 4.95117 3.1543 4.9043 2.86523C4.86133 2.57227 4.79688 2.32227 4.71094 2.11523C4.625 1.9082 4.51562 1.74023 4.38281 1.61133C4.25391 1.48242 4.10352 1.38867 3.93164 1.33008C3.76367 1.26758 3.57422 1.23633 3.36328 1.23633C3.10547 1.23633 2.87695 1.28516 2.67773 1.38281C2.47852 1.47656 2.31055 1.62695 2.17383 1.83398C2.04102 2.04102 1.93945 2.3125 1.86914 2.64844C1.79883 2.98438 1.76367 3.39258 1.76367 3.87305V5.53125C1.76367 5.91406 1.78516 6.25195 1.82812 6.54492C1.875 6.83789 1.94336 7.0918 2.0332 7.30664C2.12305 7.51758 2.23242 7.69141 2.36133 7.82812C2.49023 7.96484 2.63867 8.06641 2.80664 8.13281C2.97852 8.19531 3.16797 8.22656 3.375 8.22656C3.64062 8.22656 3.87305 8.17578 4.07227 8.07422C4.27148 7.97266 4.4375 7.81445 4.57031 7.59961C4.70703 7.38086 4.80859 7.10156 4.875 6.76172C4.94141 6.41797 4.97461 6.00781 4.97461 5.53125ZM12.8379 6.69141C12.8379 7.21094 12.7168 7.65234 12.4746 8.01562C12.2363 8.375 11.9121 8.64844 11.502 8.83594C11.0957 9.02344 10.6367 9.11719 10.125 9.11719C9.61328 9.11719 9.15234 9.02344 8.74219 8.83594C8.33203 8.64844 8.00781 8.375 7.76953 8.01562C7.53125 7.65234 7.41211 7.21094 7.41211 6.69141C7.41211 6.35156 7.47656 6.04102 7.60547 5.75977C7.73828 5.47461 7.92383 5.22656 8.16211 5.01562C8.4043 4.80469 8.68945 4.64258 9.01758 4.5293C9.34961 4.41211 9.71484 4.35352 10.1133 4.35352C10.6367 4.35352 11.1035 4.45508 11.5137 4.6582C11.9238 4.85742 12.2461 5.13281 12.4805 5.48438C12.7188 5.83594 12.8379 6.23828 12.8379 6.69141ZM11.748 6.66797C11.748 6.35156 11.6797 6.07227 11.543 5.83008C11.4062 5.58398 11.2148 5.39258 10.9688 5.25586C10.7227 5.11914 10.4375 5.05078 10.1133 5.05078C9.78125 5.05078 9.49414 5.11914 9.25195 5.25586C9.01367 5.39258 8.82812 5.58398 8.69531 5.83008C8.5625 6.07227 8.49609 6.35156 8.49609 6.66797C8.49609 6.99609 8.56055 7.27734 8.68945 7.51172C8.82227 7.74219 9.00977 7.91992 9.25195 8.04492C9.49805 8.16602 9.78906 8.22656 10.125 8.22656C10.4609 8.22656 10.75 8.16602 10.9922 8.04492C11.2344 7.91992 11.4199 7.74219 11.5488 7.51172C11.6816 7.27734 11.748 6.99609 11.748 6.66797ZM12.6387 2.68945C12.6387 3.10352 12.5293 3.47656 12.3105 3.80859C12.0918 4.14062 11.793 4.40234 11.4141 4.59375C11.0352 4.78516 10.6055 4.88086 10.125 4.88086C9.63672 4.88086 9.20117 4.78516 8.81836 4.59375C8.43945 4.40234 8.14258 4.14062 7.92773 3.80859C7.71289 3.47656 7.60547 3.10352 7.60547 2.68945C7.60547 2.19336 7.71289 1.77148 7.92773 1.42383C8.14648 1.07617 8.44531 0.810547 8.82422 0.626953C9.20312 0.443359 9.63477 0.351562 10.1191 0.351562C10.6074 0.351562 11.041 0.443359 11.4199 0.626953C11.7988 0.810547 12.0957 1.07617 12.3105 1.42383C12.5293 1.77148 12.6387 2.19336 12.6387 2.68945ZM11.5547 2.70703C11.5547 2.42188 11.4941 2.16992 11.373 1.95117C11.252 1.73242 11.084 1.56055 10.8691 1.43555C10.6543 1.30664 10.4043 1.24219 10.1191 1.24219C9.83398 1.24219 9.58398 1.30273 9.36914 1.42383C9.1582 1.54102 8.99219 1.70898 8.87109 1.92773C8.75391 2.14648 8.69531 2.40625 8.69531 2.70703C8.69531 3 8.75391 3.25586 8.87109 3.47461C8.99219 3.69336 9.16016 3.86328 9.375 3.98438C9.58984 4.10547 9.83984 4.16602 10.125 4.16602C10.4102 4.16602 10.6582 4.10547 10.8691 3.98438C11.084 3.86328 11.252 3.69336 11.373 3.47461C11.4941 3.25586 11.5547 3 11.5547 2.70703ZM14.3438 8.42578C14.3438 8.24219 14.4004 8.08789 14.5137 7.96289C14.6309 7.83398 14.7988 7.76953 15.0176 7.76953C15.2363 7.76953 15.4023 7.83398 15.5156 7.96289C15.6328 8.08789 15.6914 8.24219 15.6914 8.42578C15.6914 8.60547 15.6328 8.75781 15.5156 8.88281C15.4023 9.00781 15.2363 9.07031 15.0176 9.07031C14.7988 9.07031 14.6309 9.00781 14.5137 8.88281C14.4004 8.75781 14.3438 8.60547 14.3438 8.42578ZM22.7285 4.05469V5.35547C22.7285 6.05469 22.666 6.64453 22.541 7.125C22.416 7.60547 22.2363 7.99219 22.002 8.28516C21.7676 8.57812 21.4844 8.79102 21.1523 8.92383C20.8242 9.05273 20.4531 9.11719 20.0391 9.11719C19.7109 9.11719 19.4082 9.07617 19.1309 8.99414C18.8535 8.91211 18.6035 8.78125 18.3809 8.60156C18.1621 8.41797 17.9746 8.17969 17.8184 7.88672C17.6621 7.59375 17.543 7.23828 17.4609 6.82031C17.3789 6.40234 17.3379 5.91406 17.3379 5.35547V4.05469C17.3379 3.35547 17.4004 2.76953 17.5254 2.29688C17.6543 1.82422 17.8359 1.44531 18.0703 1.16016C18.3047 0.871094 18.5859 0.664062 18.9141 0.539062C19.2461 0.414063 19.6172 0.351562 20.0273 0.351562C20.3594 0.351562 20.6641 0.392578 20.9414 0.474609C21.2227 0.552734 21.4727 0.679688 21.6914 0.855469C21.9102 1.02734 22.0957 1.25781 22.248 1.54688C22.4043 1.83203 22.5234 2.18164 22.6055 2.5957C22.6875 3.00977 22.7285 3.49609 22.7285 4.05469ZM21.6387 5.53125V3.87305C21.6387 3.49023 21.6152 3.1543 21.5684 2.86523C21.5254 2.57227 21.4609 2.32227 21.375 2.11523C21.2891 1.9082 21.1797 1.74023 21.0469 1.61133C20.918 1.48242 20.7676 1.38867 20.5957 1.33008C20.4277 1.26758 20.2383 1.23633 20.0273 1.23633C19.7695 1.23633 19.541 1.28516 19.3418 1.38281C19.1426 1.47656 18.9746 1.62695 18.8379 1.83398C18.7051 2.04102 18.6035 2.3125 18.5332 2.64844C18.4629 2.98438 18.4277 3.39258 18.4277 3.87305V5.53125C18.4277 5.91406 18.4492 6.25195 18.4922 6.54492C18.5391 6.83789 18.6074 7.0918 18.6973 7.30664C18.7871 7.51758 18.8965 7.69141 19.0254 7.82812C19.1543 7.96484 19.3027 8.06641 19.4707 8.13281C19.6426 8.19531 19.832 8.22656 20.0391 8.22656C20.3047 8.22656 20.5371 8.17578 20.7363 8.07422C20.9355 7.97266 21.1016 7.81445 21.2344 7.59961C21.3711 7.38086 21.4727 7.10156 21.5391 6.76172C21.6055 6.41797 21.6387 6.00781 21.6387 5.53125ZM29.8887 6.12891V7.01953H23.7246V6.38086L27.5449 0.46875H28.4297L27.4805 2.17969L24.9551 6.12891H29.8887ZM28.6992 0.46875V9H27.6152V0.46875H28.6992ZM31.0078 8.42578C31.0078 8.24219 31.0645 8.08789 31.1777 7.96289C31.2949 7.83398 31.4629 7.76953 31.6816 7.76953C31.9004 7.76953 32.0664 7.83398 32.1797 7.96289C32.2969 8.08789 32.3555 8.24219 32.3555 8.42578C32.3555 8.60547 32.2969 8.75781 32.1797 8.88281C32.0664 9.00781 31.9004 9.07031 31.6816 9.07031C31.4629 9.07031 31.2949 9.00781 31.1777 8.88281C31.0645 8.75781 31.0078 8.60547 31.0078 8.42578ZM39.627 8.10938V9H34.043V8.2207L36.8379 5.10938C37.1816 4.72656 37.4473 4.40234 37.6348 4.13672C37.8262 3.86719 37.959 3.62695 38.0332 3.41602C38.1113 3.20117 38.1504 2.98242 38.1504 2.75977C38.1504 2.47852 38.0918 2.22461 37.9746 1.99805C37.8613 1.76758 37.6934 1.58398 37.4707 1.44727C37.248 1.31055 36.9785 1.24219 36.6621 1.24219C36.2832 1.24219 35.9668 1.31641 35.7129 1.46484C35.4629 1.60938 35.2754 1.8125 35.1504 2.07422C35.0254 2.33594 34.9629 2.63672 34.9629 2.97656H33.8789C33.8789 2.49609 33.9844 2.05664 34.1953 1.6582C34.4062 1.25977 34.7188 0.943359 35.1328 0.708984C35.5469 0.470703 36.0566 0.351562 36.6621 0.351562C37.2012 0.351562 37.6621 0.447266 38.0449 0.638672C38.4277 0.826172 38.7207 1.0918 38.9238 1.43555C39.1309 1.77539 39.2344 2.17383 39.2344 2.63086C39.2344 2.88086 39.1914 3.13477 39.1055 3.39258C39.0234 3.64648 38.9082 3.90039 38.7598 4.1543C38.6152 4.4082 38.4453 4.6582 38.25 4.9043C38.0586 5.15039 37.8535 5.39258 37.6348 5.63086L35.3496 8.10938H39.627ZM46.1426 4.05469V5.35547C46.1426 6.05469 46.0801 6.64453 45.9551 7.125C45.8301 7.60547 45.6504 7.99219 45.416 8.28516C45.1816 8.57812 44.8984 8.79102 44.5664 8.92383C44.2383 9.05273 43.8672 9.11719 43.4531 9.11719C43.125 9.11719 42.8223 9.07617 42.5449 8.99414C42.2676 8.91211 42.0176 8.78125 41.7949 8.60156C41.5762 8.41797 41.3887 8.17969 41.2324 7.88672C41.0762 7.59375 40.957 7.23828 40.875 6.82031C40.793 6.40234 40.752 5.91406 40.752 5.35547V4.05469C40.752 3.35547 40.8145 2.76953 40.9395 2.29688C41.0684 1.82422 41.25 1.44531 41.4844 1.16016C41.7188 0.871094 42 0.664062 42.3281 0.539062C42.6602 0.414063 43.0312 0.351562 43.4414 0.351562C43.7734 0.351562 44.0781 0.392578 44.3555 0.474609C44.6367 0.552734 44.8867 0.679688 45.1055 0.855469C45.3242 1.02734 45.5098 1.25781 45.6621 1.54688C45.8184 1.83203 45.9375 2.18164 46.0195 2.5957C46.1016 3.00977 46.1426 3.49609 46.1426 4.05469ZM45.0527 5.53125V3.87305C45.0527 3.49023 45.0293 3.1543 44.9824 2.86523C44.9395 2.57227 44.875 2.32227 44.7891 2.11523C44.7031 1.9082 44.5938 1.74023 44.4609 1.61133C44.332 1.48242 44.1816 1.38867 44.0098 1.33008C43.8418 1.26758 43.6523 1.23633 43.4414 1.23633C43.1836 1.23633 42.9551 1.28516 42.7559 1.38281C42.5566 1.47656 42.3887 1.62695 42.252 1.83398C42.1191 2.04102 42.0176 2.3125 41.9473 2.64844C41.877 2.98438 41.8418 3.39258 41.8418 3.87305V5.53125C41.8418 5.91406 41.8633 6.25195 41.9062 6.54492C41.9531 6.83789 42.0215 7.0918 42.1113 7.30664C42.2012 7.51758 42.3105 7.69141 42.4395 7.82812C42.5684 7.96484 42.7168 8.06641 42.8848 8.13281C43.0566 8.19531 43.2461 8.22656 43.4531 8.22656C43.7188 8.22656 43.9512 8.17578 44.1504 8.07422C44.3496 7.97266 44.5156 7.81445 44.6484 7.59961C44.7852 7.38086 44.8867 7.10156 44.9531 6.76172C45.0195 6.41797 45.0527 6.00781 45.0527 5.53125ZM53.127 8.10938V9H47.543V8.2207L50.3379 5.10938C50.6816 4.72656 50.9473 4.40234 51.1348 4.13672C51.3262 3.86719 51.459 3.62695 51.5332 3.41602C51.6113 3.20117 51.6504 2.98242 51.6504 2.75977C51.6504 2.47852 51.5918 2.22461 51.4746 1.99805C51.3613 1.76758 51.1934 1.58398 50.9707 1.44727C50.748 1.31055 50.4785 1.24219 50.1621 1.24219C49.7832 1.24219 49.4668 1.31641 49.2129 1.46484C48.9629 1.60938 48.7754 1.8125 48.6504 2.07422C48.5254 2.33594 48.4629 2.63672 48.4629 2.97656H47.3789C47.3789 2.49609 47.4844 2.05664 47.6953 1.6582C47.9062 1.25977 48.2188 0.943359 48.6328 0.708984C49.0469 0.470703 49.5566 0.351562 50.1621 0.351562C50.7012 0.351562 51.1621 0.447266 51.5449 0.638672C51.9277 0.826172 52.2207 1.0918 52.4238 1.43555C52.6309 1.77539 52.7344 2.17383 52.7344 2.63086C52.7344 2.88086 52.6914 3.13477 52.6055 3.39258C52.5234 3.64648 52.4082 3.90039 52.2598 4.1543C52.1152 4.4082 51.9453 4.6582 51.75 4.9043C51.5586 5.15039 51.3535 5.39258 51.1348 5.63086L48.8496 8.10938H53.127ZM59.877 8.10938V9H54.293V8.2207L57.0879 5.10938C57.4316 4.72656 57.6973 4.40234 57.8848 4.13672C58.0762 3.86719 58.209 3.62695 58.2832 3.41602C58.3613 3.20117 58.4004 2.98242 58.4004 2.75977C58.4004 2.47852 58.3418 2.22461 58.2246 1.99805C58.1113 1.76758 57.9434 1.58398 57.7207 1.44727C57.498 1.31055 57.2285 1.24219 56.9121 1.24219C56.5332 1.24219 56.2168 1.31641 55.9629 1.46484C55.7129 1.60938 55.5254 1.8125 55.4004 2.07422C55.2754 2.33594 55.2129 2.63672 55.2129 2.97656H54.1289C54.1289 2.49609 54.2344 2.05664 54.4453 1.6582C54.6562 1.25977 54.9688 0.943359 55.3828 0.708984C55.7969 0.470703 56.3066 0.351562 56.9121 0.351562C57.4512 0.351562 57.9121 0.447266 58.2949 0.638672C58.6777 0.826172 58.9707 1.0918 59.1738 1.43555C59.3809 1.77539 59.4844 2.17383 59.4844 2.63086C59.4844 2.88086 59.4414 3.13477 59.3555 3.39258C59.2734 3.64648 59.1582 3.90039 59.0098 4.1543C58.8652 4.4082 58.6953 4.6582 58.5 4.9043C58.3086 5.15039 58.1035 5.39258 57.8848 5.63086L55.5996 8.10938H59.877Z" fill="black"/>
</svg>
